{"title":"Lost S01E11 - AVM","uid":5044054,"size":139824026,"categoryP":"video","categoryS":"tv_shows","magnet":"?xt=urn:btih:2011e1170c0127888e43ac26fe832543296e0cd1&amp;dn=Lost+S01E11+-+AVM&amp;tr=udp%3A%2F%2Ftracker.openbittorrent.com%3A80&amp;tr=udp%3A%2F%2Fopen.demonii.com%3A1337&amp;tr=udp%3A%2F%2Ftracker.coppersurfer.tk%3A6969&amp;tr=udp%3A%2F%2Fexodus.desync.com%3A6969","seeders":1,"leechers":1,"uploader":"SysProfile","files":1,"time":1249534892,"description":"AVIDMobile - http://www.avidmobile.com.ar (Mobile media)\n\nVideo\nID                               : 1\nFormat                           : MPEG-4 Visual\nFormat profile                   : Simple@L1\nFormat settings, BVOP            : No\nFormat settings, QPel            : No\nFormat settings, GMC             : No warppoints\nFormat settings, Matrix          : Default (H.263)\nCodec ID                         : 20\nDuration                         : 42mn 11s\nBit rate mode                    : Variable\nBit rate                         : 372 Kbps\nMaximum bit rate                 : 1 215 Kbps\nWidth                            : 320 pixels\nHeight                           : 240 pixels\nDisplay aspect ratio             : 4/3\nFrame rate mode                  : Variable\nFrame rate                       : 23.976 fps\nMinimum frame rate               : 23.974 fps\nMaximum frame rate               : 23.981 fps\nResolution                       : 24 bits\nColorimetry                      : 4:2:0\nScan type                        : Progressive\nBits/(Pixel*Frame)               : 0.202\nStream size                      : 112 MiB (84%)\n\nAudio\nID                               : 2\nFormat                           : AAC\nFormat/Info                      : Advanced Audio Codec\nFormat version                   : Version 4\nFormat profile                   : LC\nFormat settings, SBR             : No\nCodec ID                         : 40\nDuration                         : 42mn 11s\nBit rate mode                    : Variable\nBit rate                         : 66.15 Kbps\nMaximum bit rate                 : 138 Kbps\nChannel(s)                       : 2 channels\nChannel positions                : L R\nSampling rate                    : 22.05 KHz\nResolution                       : 16 bits\nStream size                      : 20.3 MiB (15%)\n","torrent":{"xt":"urn:btih:2011e1170c0127888e43ac26fe832543296e0cd1","amp;dn":"Lost+S01E11+-+AVM","amp;tr":["udp%3A%2F%2Ftracker.openbittorrent.com%3A80","udp%3A%2F%2Fopen.demonii.com%3A1337","udp%3A%2F%2Ftracker.coppersurfer.tk%3A6969","udp%3A%2F%2Fexodus.desync.com%3A6969"],"infoHash":"2011e1170c0127888e43ac26fe832543296e0cd1","infoHashBuffer":{"type":"Buffer","data":[32,17,225,23,12,1,39,136,142,67,172,38,254,131,37,67,41,110,12,209]},"announce":[],"urlList":[]}}